<svg width="1200" height="630" viewBox="0 0 1200 630" fill="none" xmlns="http://www.w3.org/2000/svg">
  <defs>
    <linearGradient id="bg" x1="0" y1="0" x2="1200" y2="630" gradientUnits="userSpaceOnUse">
      <stop stop-color="#0A0A0F"/>
      <stop offset="1" stop-color="#10131A"/>
    </linearGradient>
    <linearGradient id="line" x1="670" y1="140" x2="1020" y2="500" gradientUnits="userSpaceOnUse">
      <stop stop-color="#67E8F9" stop-opacity="0.9"/>
      <stop offset="1" stop-color="#67E8F9" stop-opacity="0.18"/>
    </linearGradient>
    <filter id="glow" x="0" y="0" width="1200" height="630" filterUnits="userSpaceOnUse" color-interpolation-filters="sRGB">
      <feGaussianBlur stdDeviation="12" result="blur"/>
      <feMerge>
        <feMergeNode in="blur"/>
        <feMergeNode in="SourceGraphic"/>
      </feMerge>
    </filter>
  </defs>

  <rect width="1200" height="630" fill="url(#bg)"/>

  <g opacity="0.14">
    <path d="M0 90H1200" stroke="white"/>
    <path d="M0 180H1200" stroke="white"/>
    <path d="M0 270H1200" stroke="white"/>
    <path d="M0 360H1200" stroke="white"/>
    <path d="M0 450H1200" stroke="white"/>
    <path d="M0 540H1200" stroke="white"/>
    <path d="M90 0V630" stroke="white"/>
    <path d="M180 0V630" stroke="white"/>
    <path d="M270 0V630" stroke="white"/>
    <path d="M360 0V630" stroke="white"/>
    <path d="M450 0V630" stroke="white"/>
    <path d="M540 0V630" stroke="white"/>
    <path d="M630 0V630" stroke="white"/>
    <path d="M720 0V630" stroke="white"/>
    <path d="M810 0V630" stroke="white"/>
    <path d="M900 0V630" stroke="white"/>
    <path d="M990 0V630" stroke="white"/>
    <path d="M1080 0V630" stroke="white"/>
  </g>

  <rect x="68" y="68" width="178" height="38" rx="19" fill="#0E1D23" stroke="#183844"/>
  <circle cx="94" cy="87" r="6" fill="#67E8F9"/>
  <text x="114" y="92" fill="#67E8F9" font-size="16" font-family="Inter, Arial, sans-serif" font-weight="700" letter-spacing="2">PARTNER NETWORK</text>

  <text x="68" y="178" fill="white" font-size="72" font-family="Inter, Arial, sans-serif" font-weight="800" letter-spacing="-3">
    Turn your network into
  </text>
  <text x="68" y="258" fill="white" font-size="72" font-family="Inter, Arial, sans-serif" font-weight="800" letter-spacing="-3">
    recurring revenue.
  </text>

  <text x="68" y="334" fill="#A1A1AA" font-size="26" font-family="Inter, Arial, sans-serif" font-weight="500">
    Earn with RELIASTRA by bringing qualified infrastructure teams
  </text>
  <text x="68" y="370" fill="#A1A1AA" font-size="26" font-family="Inter, Arial, sans-serif" font-weight="500">
    to external dependency intelligence.
  </text>

  <g filter="url(#glow)">
    <path d="M790 160L915 215" stroke="url(#line)" stroke-width="4"/>
    <path d="M915 215L830 348" stroke="url(#line)" stroke-width="4"/>
    <path d="M915 215L1030 340" stroke="url(#line)" stroke-width="4"/>
    <path d="M830 348L920 492" stroke="url(#line)" stroke-width="4"/>
    <path d="M1030 340L920 492" stroke="url(#line)" stroke-width="4"/>

    <g>
      <rect x="724" y="116" width="132" height="56" rx="18" fill="#11161D" stroke="#21404A"/>
      <text x="748" y="150" fill="white" font-size="24" font-family="Inter, Arial, sans-serif" font-weight="700">Partner</text>
    </g>
    <g>
      <rect x="860" y="186" width="146" height="64" rx="20" fill="#0F2229" stroke="#2A5A66"/>
      <text x="893" y="226" fill="white" font-size="26" font-family="Inter, Arial, sans-serif" font-weight="700">Network</text>
    </g>
    <g>
      <rect x="760" y="320" width="136" height="58" rx="18" fill="#11161D" stroke="#21404A"/>
      <text x="786" y="356" fill="white" font-size="24" font-family="Inter, Arial, sans-serif" font-weight="700">Referral</text>
    </g>
    <g>
      <rect x="972" y="308" width="144" height="64" rx="20" fill="#0F2229" stroke="#2A5A66"/>
      <text x="1000" y="346" fill="white" font-size="24" font-family="Inter, Arial, sans-serif" font-weight="700">Customer</text>
    </g>
    <g>
      <rect x="842" y="462" width="156" height="62" rx="20" fill="#10251B" stroke="#1B5E3A"/>
      <text x="876" y="500" fill="white" font-size="24" font-family="Inter, Arial, sans-serif" font-weight="700">Revenue</text>
    </g>

    <circle cx="790" cy="160" r="8" fill="#67E8F9"/>
    <circle cx="915" cy="215" r="9" fill="#67E8F9"/>
    <circle cx="830" cy="348" r="8" fill="#67E8F9"/>
    <circle cx="1030" cy="340" r="9" fill="#67E8F9"/>
    <circle cx="920" cy="492" r="9" fill="#22C55E"/>
  </g>

  <rect x="68" y="480" width="370" height="78" rx="22" fill="#10131A" stroke="#1E293B"/>
  <text x="96" y="515" fill="#67E8F9" font-size="16" font-family="IBM Plex Mono, monospace" letter-spacing="2">QUALIFIED DISTRIBUTION</text>
  <text x="96" y="548" fill="white" font-size="24" font-family="Inter, Arial, sans-serif" font-weight="600">
    Access beats vanity metrics.
  </text>

  <text x="68" y="602" fill="white" font-size="28" font-family="Inter, Arial, sans-serif" font-weight="800">
    reliastra<tspan fill="#0891B2">.</tspan>
  </text>
</svg>
